<?xml version="1.0" standalone="no"?>
<!DOCTYPE svg PUBLIC "-//W3C//DTD SVG 20010904//EN"
 "http://www.w3.org/TR/2001/REC-SVG-20010904/DTD/svg10.dtd">
<svg version="1.0" xmlns="http://www.w3.org/2000/svg"
 width="2033.000000pt" height="2033.000000pt" viewBox="0 0 2033.000000 2033.000000"
 preserveAspectRatio="xMidYMid meet">
<metadata>
Created by potrace 1.14, written by Peter Selinger 2001-2017
</metadata>
<g transform="translate(0.000000,2033.000000) scale(0.100000,-0.100000)"
fill="#000000" stroke="none">
<path d="M0 10165 l0 -10165 10165 0 10165 0 0 10165 0 10165 -10165 0 -10165
0 0 -10165z m10200 9203 c0 -18 9 -193 20 -388 22 -400 25 -634 9 -712 -33
-155 -153 -275 -325 -323 -79 -22 -319 -31 -409 -16 -142 25 -266 115 -324
234 -50 102 -62 208 -97 860 -9 170 -13 311 -10 314 8 8 270 22 277 14 4 -3
16 -193 28 -421 31 -589 37 -624 107 -693 55 -55 79 -62 204 -62 93 0 122 4
150 19 49 26 79 55 103 101 19 36 21 55 20 185 -1 80 -11 309 -22 509 -12 200
-21 371 -21 382 0 19 23 22 213 27 l77 2 0 -32z m750 -14 c63 -9 116 -17 118
-19 1 -1 102 -231 222 -511 121 -280 220 -507 221 -504 0 3 31 211 68 463 37
251 70 460 74 463 3 3 62 -2 131 -12 101 -14 126 -20 126 -33 0 -25 -199
-1393 -203 -1398 -4 -4 -279 35 -284 41 -2 1 -98 220 -213 485 -116 266 -214
489 -218 497 -5 9 -34 -167 -71 -423 -34 -241 -65 -447 -68 -459 l-4 -20 -126
18 c-70 10 -129 20 -131 23 -4 4 178 1295 195 1387 4 22 10 27 27 23 11 -2 73
-12 136 -21z m1593 -314 c74 -21 117 -38 117 -47 0 -12 -380 -1354 -386 -1361
-4 -6 -274 73 -274 81 0 7 375 1325 385 1356 3 7 13 11 23 9 9 -3 70 -20 135
-38z m-4910 -85 c99 -21 181 -68 268 -155 107 -106 184 -248 239 -441 27 -94
38 -283 21 -371 -31 -158 -140 -297 -294 -373 -88 -43 -649 -237 -658 -227
-10 11 -462 1342 -458 1346 15 13 622 210 681 221 96 17 120 17 201 0z m5483
-84 c75 -33 138 -62 141 -65 3 -3 -13 -241 -36 -530 -24 -289 -41 -537 -39
-550 3 -23 49 27 689 746 l45 52 137 -59 c75 -32 137 -61 137 -65 0 -3 -232
-254 -515 -557 l-516 -551 -139 60 c-96 42 -140 66 -140 77 -1 29 94 1501 97
1501 1 0 64 -27 139 -59z m-6849 -551 c144 -71 247 -255 229 -409 -10 -81 -47
-153 -116 -225 l-61 -63 73 -7 c39 -4 107 -21 151 -36 96 -35 509 -249 502
-260 -3 -4 -68 -45 -146 -90 l-140 -81 -257 124 c-295 143 -346 162 -408 153
-43 -6 -177 -66 -189 -86 -3 -5 60 -122 140 -260 80 -138 143 -255 140 -260
-11 -18 -238 -141 -245 -133 -17 18 -712 1224 -708 1228 5 5 443 261 558 325
223 126 343 146 477 80z m8731 -425 c237 -159 431 -294 432 -298 0 -6 -107
-173 -126 -196 -1 -1 -147 94 -323 213 l-321 216 -80 -120 c-45 -67 -83 -127
-86 -135 -4 -9 65 -61 218 -163 123 -82 255 -172 295 -199 l72 -50 -65 -96
c-35 -54 -67 -97 -70 -97 -3 0 -134 86 -290 190 -156 105 -290 193 -297 195
-8 4 -53 -54 -119 -153 l-107 -159 330 -222 c182 -123 329 -226 327 -231 -14
-36 -126 -189 -135 -185 -28 10 -894 597 -891 604 10 23 794 1180 799 1178 3
-1 200 -132 437 -292z m-4357 -451 c1962 -140 3770 -1098 5003 -2652 867
-1091 1383 -2415 1498 -3837 16 -208 16 -842 0 -1050 -138 -1713 -848 -3255
-2052 -4455 -1105 -1102 -2512 -1795 -4050 -1995 -594 -77 -1236 -77 -1830 0
-2062 269 -3898 1439 -5022 3200 -621 974 -983 2064 -1080 3250 -16 204 -16
850 0 1050 99 1194 457 2271 1081 3250 732 1150 1813 2088 3036 2635 1090 489
2226 689 3416 604z m-5766 -99 c254 -66 514 -326 596 -595 30 -96 32 -246 5
-334 -66 -220 -258 -420 -484 -504 -89 -33 -246 -41 -346 -18 -90 21 -208 84
-293 155 -129 108 -252 278 -301 413 -23 65 -26 88 -26 213 -1 129 1 145 26
203 93 222 298 407 518 466 74 20 230 20 305 1z m11565 -687 c73 -97 93 -154
89 -256 -5 -103 -45 -186 -128 -266 -141 -134 -308 -152 -475 -51 -61 37 -71
41 -62 26 17 -27 26 -165 17 -241 -9 -70 -107 -529 -114 -537 -2 -1 -58 53
-124 120 l-121 122 49 250 c27 138 52 291 56 341 7 112 -8 151 -92 234 l-55
55 -210 -210 -210 -210 -102 103 -103 102 505 505 505 505 258 -258 c142 -141
285 -292 317 -334z m-12872 -389 c45 -34 82 -66 82 -71 0 -4 -90 -126 -200
-271 -110 -144 -201 -266 -202 -272 -2 -10 248 -205 261 -205 3 1 42 49 86
107 44 59 124 164 178 235 l98 128 94 -71 c52 -39 95 -73 95 -76 0 -2 -79
-107 -175 -233 -96 -126 -175 -234 -175 -239 0 -6 105 -90 233 -186 127 -97
233 -180 235 -184 4 -10 -160 -224 -171 -223 -7 0 -751 563 -1069 808 l-67 51
250 329 c338 444 340 446 354 441 6 -3 49 -33 93 -68z m13524 -437 c149 -73
308 -278 363 -467 25 -85 17 -212 -17 -288 -27 -56 -121 -167 -142 -167 -6 1
-48 50 -93 111 l-82 111 37 50 c47 66 55 141 23 213 -47 107 -142 200 -215
212 -64 10 -126 -46 -126 -114 0 -42 24 -129 79 -282 70 -196 84 -265 79 -369
-6 -108 -29 -164 -99 -237 -103 -109 -198 -149 -342 -143 -120 4 -194 38 -294
132 -188 177 -298 429 -263 602 22 107 107 250 180 301 26 19 12 31 140 -124
l60 -71 -37 -44 c-113 -135 -97 -296 46 -438 103 -103 234 -108 298 -11 36 53
30 95 -46 321 -39 113 -75 236 -82 274 -34 202 62 380 243 447 83 31 205 23
290 -19z m-14263 -997 c105 -181 195 -336 199 -343 7 -10 100 -2 443 37 239
27 435 48 436 47 2 -2 -145 -294 -152 -304 -2 -2 -131 -15 -289 -31 -157 -15
-287 -29 -290 -32 -2 -2 61 -116 141 -254 l145 -250 -77 -153 c-43 -84 -81
-150 -85 -145 -5 4 -103 177 -220 383 -117 206 -214 376 -215 378 -3 3 -661
-60 -767 -74 l-46 -6 75 149 c42 81 77 149 78 151 1 1 122 13 269 25 230 18
266 23 261 37 -4 8 -65 111 -137 229 l-131 215 74 148 c56 113 76 145 85 135
6 -6 97 -160 203 -342z m15079 -241 c35 -69 62 -127 60 -129 -9 -9 -1270 -647
-1272 -644 -12 14 -126 252 -122 256 6 6 1259 642 1266 643 3 0 34 -57 68
-126z m422 -968 c105 -290 188 -532 183 -536 -8 -7 -200 -80 -212 -80 -3 0
-38 88 -76 195 -39 107 -74 195 -79 195 -5 0 -256 -90 -559 -200 -302 -110
-551 -199 -553 -198 -12 13 -94 262 -87 268 4 4 253 97 553 205 300 109 547
199 549 201 2 2 -29 91 -68 200 -40 108 -70 198 -68 200 4 4 221 82 223 80 1
0 88 -239 194 -530z m-15762 -110 c284 -78 460 -226 539 -453 24 -69 27 -92
27 -203 -1 -106 -5 -139 -28 -215 -65 -213 -183 -365 -346 -443 -103 -49 -176
-65 -295 -64 -150 1 -346 53 -485 129 -140 77 -276 249 -315 399 -38 146 -6
364 77 533 81 164 246 297 420 336 96 22 288 13 406 -19z m16066 -857 c14 -80
26 -155 26 -166 0 -14 -74 -83 -244 -229 -135 -115 -241 -212 -238 -216 4 -3
138 -54 297 -113 160 -59 294 -111 299 -115 11 -11 65 -320 56 -320 -4 0 -209
83 -454 184 l-447 185 -286 -50 c-157 -28 -291 -48 -297 -46 -11 4 -61 265
-53 274 4 3 562 103 579 103 3 0 170 148 369 329 200 182 364 329 365 328 1
-1 14 -68 28 -148z m-15014 -6230 c252 -58 511 -382 549 -687 16 -126 -12
-247 -79 -352 -35 -54 -164 -180 -185 -180 -8 0 -56 55 -108 122 l-95 122 57
55 c74 72 95 118 96 202 0 57 -5 76 -42 150 -47 96 -143 209 -204 239 -85 44
-189 16 -225 -59 -26 -55 -13 -118 85 -408 96 -285 118 -388 105 -491 -21
-171 -117 -306 -268 -381 -79 -39 -133 -50 -231 -51 -238 0 -442 142 -602 422
-196 342 -148 671 128 884 33 25 61 45 63 43 2 -2 46 -58 98 -125 l96 -121
-63 -62 c-72 -70 -103 -126 -112 -200 -18 -155 95 -377 243 -477 98 -66 186
-67 259 -3 78 69 73 142 -29 441 -118 347 -136 456 -101 593 41 154 163 276
325 321 56 15 180 17 240 3z m13025 -434 c171 -45 310 -196 331 -361 l6 -53
35 14 c63 26 157 36 230 25 231 -37 433 -273 433 -505 0 -88 -41 -214 -104
-320 -54 -93 -501 -684 -513 -680 -6 2 -265 194 -575 426 -310 232 -554 412
-543 399 11 -13 123 -134 248 -269 251 -271 347 -390 402 -498 87 -173 83
-359 -12 -533 -106 -196 -339 -389 -534 -443 -137 -39 -246 -29 -374 32 -153
73 -214 130 -724 681 l-311 335 118 112 c64 62 120 112 124 113 4 0 173 -179
376 -398 203 -219 398 -423 432 -455 89 -80 147 -107 231 -107 97 0 182 45
281 148 84 88 120 153 126 229 4 45 -1 63 -30 125 -49 103 -82 141 -482 573
-196 212 -359 391 -362 399 -3 8 32 48 92 102 78 72 142 149 334 405 238 315
314 400 406 454 107 63 239 81 359 50z m-12186 -556 l110 -116 -348 -332
c-570 -542 -605 -584 -604 -715 1 -94 37 -162 142 -267 127 -126 219 -161 329
-125 52 18 139 73 207 134 36 31 514 486 718 682 l79 75 101 -105 c84 -88 152
-142 392 -315 332 -240 442 -339 494 -446 88 -181 55 -397 -83 -535 -64 -63
-164 -115 -237 -122 -27 -2 -49 -6 -49 -9 0 -2 9 -32 21 -66 17 -50 20 -80 17
-157 -3 -85 -8 -104 -41 -174 -83 -175 -279 -306 -457 -306 -110 0 -261 53
-380 133 -25 17 -179 127 -342 245 l-297 216 22 30 c12 17 185 256 386 531
200 275 380 523 399 550 26 36 -15 1 -143 -121 -427 -406 -496 -465 -621 -524
-249 -119 -503 -55 -741 187 -191 194 -276 401 -243 592 17 101 81 225 172
334 75 89 866 850 879 845 4 -2 57 -55 118 -119z m9990 -2169 c216 -327 397
-599 404 -604 9 -6 122 63 350 213 185 121 338 221 340 221 3 0 42 -57 87
-126 66 -103 79 -129 68 -139 -23 -20 -949 -627 -952 -624 -2 2 -146 222 -321
489 -175 267 -323 490 -329 497 -9 10 -40 -10 -135 -82 l-124 -94 -66 67 c-90
90 -161 126 -261 130 -173 8 -366 -108 -442 -268 -68 -141 -44 -356 65 -575
76 -154 183 -277 285 -329 116 -59 266 -56 399 8 189 92 269 257 233 485 -7
45 -11 83 -9 86 2 2 78 17 167 33 111 19 165 25 167 18 2 -6 9 -58 15 -116 42
-392 -156 -688 -550 -823 -220 -75 -445 -59 -617 45 -226 136 -408 391 -495
693 -20 69 -23 102 -23 245 1 152 3 171 28 245 14 44 43 109 64 145 47 80 207
243 285 288 306 180 609 177 851 -6 38 -29 65 -47 61 -40 -5 7 -54 84 -111
170 -56 86 -104 162 -105 168 -4 13 264 192 273 182 4 -4 183 -275 398 -602z
m-6992 14 l143 -56 0 -36 c0 -20 7 -406 15 -857 8 -451 15 -868 15 -926 l0
-107 -172 68 -173 67 -5 274 -5 273 -275 108 c-151 59 -280 107 -286 108 -9 0
-304 -327 -349 -387 -8 -11 -43 0 -177 53 l-168 65 358 392 c196 216 485 533
642 705 156 171 287 312 289 312 3 0 70 -25 148 -56z m-1328 -436 c163 -89
308 -169 323 -178 l27 -16 -70 -130 c-39 -71 -74 -133 -79 -138 -7 -7 -579
297 -634 337 -18 13 -15 20 55 150 41 75 76 137 78 137 2 0 137 -73 300 -162z
m2608 91 c198 -27 365 -110 504 -249 75 -75 93 -100 137 -191 76 -158 87 -211
86 -424 0 -161 -3 -190 -26 -276 -54 -199 -132 -342 -251 -460 l-67 -66 44
-41 c24 -22 76 -62 115 -88 39 -26 71 -50 71 -54 0 -4 -29 -50 -64 -102 -35
-53 -68 -104 -74 -113 -9 -17 -18 -13 -98 41 -49 32 -128 96 -175 141 l-86 83
-74 -16 c-112 -24 -306 -15 -424 20 -163 49 -317 149 -416 270 -140 170 -211
441 -180 681 75 576 468 915 978 844z m3416 -817 c279 -440 509 -806 512 -814
7 -17 18 -14 -203 -53 -84 -15 -154 -26 -156 -24 -1 2 -64 107 -140 232 l-138
228 -31 -6 c-18 -3 -153 -27 -300 -54 -148 -26 -272 -53 -276 -59 -3 -6 -26
-125 -50 -264 -24 -139 -44 -254 -45 -255 -4 -4 -341 -62 -344 -58 -3 2 76
424 175 937 l179 933 145 27 c79 14 149 27 155 27 6 1 239 -358 517 -797z
m-2332 33 c6 -668 6 -674 66 -760 61 -86 187 -132 338 -122 168 12 258 56 301
151 47 104 49 132 47 759 l-3 587 170 0 170 0 0 -582 c0 -629 -5 -709 -53
-840 -70 -194 -229 -323 -454 -370 -140 -29 -349 -22 -478 17 -246 73 -370
220 -420 495 -14 80 -18 188 -22 688 l-6 592 169 -2 169 -3 6 -610z"/>
<path d="M7427 18699 c-43 -7 -327 -97 -327 -104 0 -4 302 -889 304 -892 4 -5
289 98 335 121 72 37 127 105 142 174 22 106 -26 320 -110 491 -81 166 -194
235 -344 210z"/>
<path d="M5963 18056 c-60 -28 -332 -183 -350 -200 -10 -9 7 -45 75 -163 48
-84 90 -153 93 -153 11 0 275 156 339 201 102 71 123 142 72 240 -20 39 -38
58 -71 76 -56 29 -93 29 -158 -1z"/>
<path d="M9635 17114 c-1617 -122 -3104 -803 -4245 -1944 -893 -894 -1507
-1995 -1791 -3213 -21 -92 -39 -174 -39 -182 0 -11 12 -15 45 -15 l45 0 0 -55
0 -56 62 3 62 3 20 58 21 58 49 -3 49 -3 20 -57 19 -58 63 0 63 0 53 65 53 65
53 -52 c29 -28 54 -50 56 -47 2 2 11 40 21 84 10 44 22 97 27 118 l10 37 64 0
65 0 0 93 1 92 79 85 80 85 0 -177 0 -178 99 0 100 0 68 103 68 102 3 -108 3
-108 142 3 142 3 3 115 c2 63 0 166 -3 228 l-7 112 -34 0 -34 0 0 55 0 55 40
0 40 0 0 45 c0 41 -2 45 -25 45 -24 0 -25 2 -25 75 l0 75 40 0 40 0 0 118 c0
116 1 119 28 144 18 18 41 28 67 30 l40 3 7 65 c38 346 256 717 502 855 l66
37 0 54 0 54 80 0 80 0 0 140 c0 133 -1 140 -20 140 -17 0 -20 7 -20 50 0 46
2 50 23 50 22 0 24 5 34 91 9 75 15 97 41 132 16 23 48 51 70 62 l40 20 4 80
3 80 36 3 36 3 6 -53 c4 -29 7 -67 7 -84 0 -26 6 -34 30 -44 34 -14 77 -60 92
-99 6 -14 13 -60 17 -101 6 -73 7 -75 34 -78 25 -3 27 -6 27 -53 0 -48 -1 -49
-30 -49 l-30 0 0 -145 0 -145 85 0 85 0 0 -59 c0 -53 2 -60 23 -67 48 -14 159
-98 229 -173 86 -93 164 -215 220 -343 40 -93 98 -297 98 -347 0 -52 11 -71
39 -71 18 0 39 -13 64 -38 34 -35 37 -43 37 -95 l0 -57 50 0 50 0 0 -70 0 -70
-50 0 -50 0 0 -375 0 -375 135 0 134 0 3 78 3 77 113 3 112 3 0 -75 c0 -58 3
-75 16 -80 9 -3 74 -6 144 -6 l129 0 3 -107 3 -108 48 -3 47 -3 0 -60 0 -59
-50 0 -51 0 3 -82 3 -83 83 -3 82 -3 0 -59 c0 -60 0 -60 30 -60 l30 0 0 60 0
60 94 0 94 0 6 -31 c3 -17 6 -42 6 -55 0 -22 4 -24 55 -24 l55 0 0 55 c0 54 0
55 30 55 25 0 30 4 30 23 0 51 31 127 65 160 l35 34 0 132 0 131 40 0 40 0 0
-132 1 -133 32 -20 c39 -24 74 -86 83 -142 6 -41 8 -43 40 -43 l34 0 0 -60 0
-60 45 0 45 0 0 55 0 55 85 0 85 0 0 -55 0 -55 50 0 50 0 0 55 0 55 75 0 75 0
0 -55 0 -55 55 0 55 0 0 100 0 100 33 0 34 0 6 107 c4 58 7 135 7 170 l0 63
34 0 c33 0 35 2 40 43 3 23 7 212 10 420 l4 377 -64 0 -64 0 0 103 c0 87 5
118 34 212 l33 110 69 5 69 5 6 220 c4 121 7 243 8 272 l1 51 50 7 50 7 0 136
c-1 129 1 145 37 270 21 72 40 132 43 132 3 0 24 -57 47 -127 36 -108 43 -146
49 -245 l7 -118 38 0 c35 0 39 2 44 33 4 27 305 2719 305 2733 0 2 7 4 15 4 8
0 17 -10 19 -22 5 -21 296 -2723 296 -2740 0 -5 15 -8 33 -8 l32 0 18 113 c67
437 69 447 88 447 11 0 19 -3 19 -7 0 -3 59 -250 130 -548 l130 -543 0 -126 0
-126 44 0 45 0 3 -115 3 -114 -45 -3 -45 -3 -3 -218 -2 -218 102 3 103 3 -3
33 -4 32 70 0 69 0 7 -92 c3 -50 6 -135 6 -190 l0 -98 -45 0 -45 0 0 -275 0
-275 75 0 75 0 2 228 c3 211 4 227 21 227 13 0 35 -38 87 -150 65 -141 69
-154 70 -222 l0 -73 110 0 109 0 3 158 3 157 72 -93 72 -92 -6 -70 -6 -70 95
0 c115 0 108 -14 108 193 0 81 4 147 9 147 5 0 36 -44 70 -97 60 -96 61 -98
61 -170 l0 -73 125 0 125 0 2 179 3 179 73 -61 72 -62 0 -87 0 -88 115 0 115
0 0 83 0 82 65 43 65 42 0 -125 0 -125 75 0 75 0 0 543 0 542 82 428 c68 354
84 427 98 427 14 0 23 -47 61 -297 l44 -298 33 -3 32 -3 0 -165 0 -164 115 0
115 0 2 308 c4 371 7 379 79 157 45 -141 48 -156 49 -261 0 -61 3 -132 6 -158
l7 -46 158 0 159 0 0 315 c0 382 4 389 79 162 l51 -152 0 -163 0 -162 153 0
154 0 6 197 c4 108 7 254 7 325 0 115 2 128 18 128 14 0 26 -33 65 -178 l47
-178 0 -677 0 -677 120 0 120 0 2 182 3 182 55 -94 55 -95 5 -115 c4 -83 8
-115 18 -114 6 1 64 2 127 3 l115 1 0 25 c0 25 1 25 79 25 79 0 80 0 83 -27 3
-27 4 -28 58 -25 30 2 57 8 60 13 3 5 21 72 40 149 19 77 37 140 40 140 3 0
26 -69 51 -152 l45 -153 85 -3 85 -3 63 91 63 91 -17 97 c-9 53 -34 176 -56
272 -337 1487 -1177 2816 -2385 3772 -945 748 -2080 1227 -3282 1383 -418 54
-951 70 -1357 39z"/>
<path d="M13239 10833 c-16 -25 -34 -40 -54 -44 -17 -4 -407 -7 -867 -8 -835
-1 -838 -1 -838 -21 0 -11 8 -23 18 -27 9 -3 27 -15 40 -26 l22 -20 0 -847 0
-847 -22 -20 c-13 -11 -31 -23 -40 -26 -10 -4 -18 -15 -18 -26 0 -20 7 -20
873 -23 660 -2 877 -6 893 -15 12 -7 27 -26 34 -43 9 -21 19 -30 36 -30 l24 0
0 240 0 240 -25 0 c-14 0 -25 -4 -25 -9 0 -5 -12 -23 -26 -40 l-26 -31 -629 0
-629 0 0 255 0 255 404 0 404 0 26 -31 c14 -17 26 -35 26 -40 0 -5 11 -9 25
-9 l25 0 0 235 0 235 -23 0 c-17 0 -28 -10 -40 -34 -12 -26 -26 -37 -54 -45
-24 -7 -182 -11 -415 -11 l-378 0 0 225 0 225 606 0 c396 0 612 -4 625 -10 10
-6 26 -24 34 -40 9 -18 23 -30 35 -30 19 0 20 8 20 240 0 226 -1 240 -18 240
-11 0 -29 -17 -43 -37z"/>
<path d="M5335 10813 c-475 -43 -794 -286 -921 -698 -26 -85 -28 -101 -28
-275 0 -173 2 -191 27 -273 51 -165 132 -301 249 -415 87 -85 146 -126 255
-179 314 -150 808 -146 1118 10 232 116 411 346 487 625 28 102 30 328 4 447
-92 423 -433 706 -910 754 -105 11 -195 12 -281 4z m310 -338 c106 -27 217
-89 293 -163 130 -126 186 -271 185 -477 0 -102 -4 -132 -26 -200 -103 -314
-386 -487 -727 -446 -166 21 -273 73 -391 190 -125 125 -179 263 -179 462 0
200 52 331 185 465 137 139 298 199 505 189 52 -2 122 -11 155 -20z"/>
<path d="M14585 10814 c-340 -35 -569 -135 -756 -331 -169 -177 -239 -368
-239 -646 0 -206 36 -347 124 -497 113 -192 324 -352 551 -418 402 -118 864
-60 1316 166 124 62 155 81 157 100 2 15 -2 22 -13 22 -9 0 -30 13 -46 29
l-29 29 0 230 c0 214 1 231 20 255 11 13 31 28 45 31 18 5 25 13 25 31 l0 25
-464 0 c-255 0 -472 3 -481 6 -9 4 -25 24 -36 45 -13 26 -26 39 -39 39 -19 0
-20 -7 -20 -220 l0 -220 25 0 c14 0 25 6 25 14 0 7 9 25 21 40 l20 26 260 0
259 0 0 -129 0 -129 -77 -32 c-253 -105 -571 -126 -791 -51 -114 39 -181 83
-267 172 -118 123 -165 247 -165 435 0 196 53 328 186 461 91 90 189 146 319
179 97 25 301 25 415 0 227 -49 400 -139 400 -209 0 -22 35 -66 44 -56 2 2 54
104 115 226 105 210 110 223 91 233 -15 8 -27 7 -49 -5 -17 -8 -37 -15 -46
-15 -8 0 -95 27 -193 60 -228 76 -345 100 -525 104 -78 2 -160 2 -182 0z"/>
<path d="M6810 10761 c0 -11 12 -24 31 -32 59 -24 59 -18 59 -681 0 -559 2
-610 20 -698 34 -165 105 -271 234 -349 162 -97 464 -151 772 -137 245 11 389
42 534 113 161 79 242 181 286 363 17 67 19 140 24 711 4 497 8 639 18 651 7
9 26 21 42 28 18 8 30 20 30 31 0 18 -13 19 -280 19 -264 0 -280 -1 -280 -18
0 -11 14 -25 35 -35 20 -9 40 -28 45 -43 14 -35 13 -1070 -1 -1171 -23 -169
-104 -253 -297 -305 -110 -29 -354 -29 -464 0 -138 37 -231 102 -269 187 -34
78 -39 160 -39 725 0 609 -2 584 60 610 18 8 30 20 30 31 0 18 -13 19 -295 19
-282 0 -295 -1 -295 -19z"/>
<path d="M9120 10761 c0 -11 12 -23 30 -31 16 -7 35 -19 42 -28 10 -12 14
-154 18 -651 5 -571 7 -644 24 -711 41 -169 125 -281 261 -352 138 -70 267
-102 498 -120 172 -13 405 -1 542 28 299 63 456 189 522 419 15 53 18 135 23
710 4 482 8 655 17 671 7 12 26 27 43 34 18 8 30 20 30 31 0 18 -13 19 -275
19 -269 0 -275 0 -275 -20 0 -12 9 -24 23 -29 12 -5 30 -18 40 -29 17 -18 18
-54 15 -628 -4 -700 0 -668 -94 -760 -91 -90 -221 -127 -439 -127 -200 0 -322
30 -414 103 -26 21 -58 55 -71 74 -51 83 -52 102 -57 701 -4 395 -2 572 6 601
9 33 19 45 46 58 22 11 35 24 35 36 0 19 -9 20 -295 20 -282 0 -295 -1 -295
-19z"/>
<path d="M3760 8326 c0 -10 94 -266 139 -378 479 -1199 1295 -2235 2356 -2990
596 -424 1304 -765 2009 -968 1751 -502 3652 -271 5209 634 1391 808 2436
2065 2972 3573 24 66 41 124 38 127 -7 6 -12723 9 -12723 2z m4371 -738 c14
-35 16 -113 4 -204 l-7 -60 41 -36 c31 -26 66 -43 139 -63 53 -16 114 -37 135
-47 59 -29 192 -163 252 -252 73 -112 87 -149 79 -212 -13 -105 26 -126 274
-148 95 -9 257 -16 360 -17 246 0 331 -9 415 -43 83 -33 125 -32 146 5 23 42
7 74 -61 127 -140 106 -163 143 -188 297 -12 76 0 220 26 312 20 74 38 83 159
83 146 0 498 24 1020 70 579 51 768 66 1026 80 281 16 275 19 319 -160 23 -88
28 -228 14 -358 -11 -103 19 -116 119 -54 l61 37 123 0 123 0 43 -43 c29 -29
55 -45 80 -49 32 -5 40 -2 65 25 37 39 50 88 62 231 5 63 14 119 19 124 5 5
34 9 65 9 60 0 161 -39 193 -74 17 -18 16 -21 -5 -61 -13 -23 -61 -91 -108
-151 -135 -173 -143 -192 -160 -415 -8 -102 -19 -210 -25 -239 -11 -53 -50
-112 -75 -112 -7 0 -38 -9 -69 -21 -70 -26 -85 -52 -85 -152 0 -85 -12 -127
-40 -145 -19 -11 -20 -10 -20 28 l0 40 -45 0 -45 0 0 -45 c0 -44 0 -45 -34
-45 -33 0 -34 1 -40 54 -7 50 -9 54 -38 60 -62 12 -68 9 -68 -33 0 -22 -4 -42
-9 -46 -16 -9 -28 26 -36 105 -3 41 -13 87 -21 103 -31 59 -160 87 -234 49
-27 -13 -39 -29 -57 -77 -13 -33 -34 -70 -47 -81 -27 -24 -164 -64 -219 -64
-24 0 -39 -6 -46 -17 -9 -16 -15 -15 -78 14 -95 44 -118 48 -159 24 l-35 -21
-67 68 c-64 63 -147 122 -457 324 -162 106 -185 118 -230 118 -28 0 -35 4 -35
19 0 42 58 53 196 38 83 -9 104 -7 225 17 74 15 189 32 256 40 119 12 144 18
130 33 -11 10 -253 -17 -352 -39 -72 -17 -126 -21 -268 -22 -175 -1 -179 -1
-198 -25 -37 -46 -14 -91 47 -91 43 0 47 -2 209 -108 330 -216 391 -260 461
-329 41 -40 78 -73 82 -73 4 0 21 9 37 20 17 11 39 20 50 20 34 0 147 -59 187
-98 21 -20 53 -51 71 -68 59 -57 73 -158 34 -253 -12 -30 -34 -63 -49 -74 -26
-20 -32 -20 -155 -8 -152 16 -173 22 -173 54 0 27 -55 144 -96 204 -58 83 -62
85 -260 86 -143 2 -176 5 -184 17 -5 8 -10 54 -10 101 0 73 -3 88 -17 94 -10
3 -88 31 -173 61 -278 99 -408 171 -522 291 -108 114 -101 235 20 344 54 49
402 227 494 253 85 25 273 38 568 39 271 1 277 1 384 -27 72 -18 112 -24 118
-18 11 11 -85 44 -182 62 -69 13 -551 13 -705 -1 -66 -5 -146 -17 -177 -25
-31 -8 -150 -60 -263 -116 -227 -111 -295 -161 -335 -245 -27 -58 -30 -142 -6
-198 20 -48 100 -131 181 -190 83 -60 218 -125 360 -175 66 -23 144 -51 173
-62 l52 -19 0 -70 c0 -38 6 -85 14 -103 14 -33 17 -35 82 -41 38 -5 116 -5
175 -2 89 5 110 3 132 -11 47 -31 107 -128 142 -229 12 -34 28 -69 34 -77 8
-9 9 -16 2 -21 -6 -3 -27 -35 -46 -70 -33 -58 -41 -65 -85 -80 -30 -10 -83
-17 -131 -17 -71 0 -89 4 -154 35 -41 20 -101 54 -134 76 l-60 41 -118 -107
c-65 -59 -176 -164 -248 -233 -71 -69 -175 -166 -230 -215 -55 -49 -138 -126
-186 -171 -47 -46 -98 -86 -113 -90 -44 -11 -341 14 -387 32 -43 18 -79 60
-79 94 0 19 4 21 30 15 26 -6 36 -1 70 32 21 22 41 50 43 64 3 13 10 51 16 84
11 64 32 91 80 101 83 19 106 28 142 61 l39 35 92 -1 c112 -1 110 -2 264 137
202 182 331 351 341 446 5 37 2 46 -18 60 -55 38 -211 6 -438 -91 -189 -81
-271 -106 -646 -197 -148 -37 -317 -82 -375 -101 -143 -47 -200 -55 -369 -55
-277 1 -335 28 -468 225 -44 65 -120 141 -156 154 -12 5 -59 12 -104 16 -77 7
-85 10 -127 46 -62 54 -108 128 -183 292 -110 239 -185 332 -291 363 -67 20
-212 20 -352 0 -131 -18 -612 -40 -701 -32 -152 14 -267 75 -288 153 -9 30 2
123 15 142 2 1 31 -6 66 -18 88 -28 176 -41 293 -41 121 0 667 45 713 59 17 5
65 27 105 49 88 49 239 97 327 106 79 8 167 -6 227 -35 63 -31 77 -67 69 -182
-7 -109 0 -126 90 -198 83 -68 187 -186 219 -249 13 -26 37 -58 52 -70 23 -18
34 -20 78 -14 109 17 121 7 206 -159 54 -105 65 -120 97 -134 54 -22 120 -12
247 40 61 24 135 53 165 62 74 24 98 41 121 86 10 21 19 40 19 42 0 2 -60 7
-132 11 -171 8 -252 21 -308 49 -38 19 -58 42 -125 142 -67 101 -88 124 -129
146 -112 61 -306 301 -471 584 -77 132 -168 224 -245 248 -201 64 -464 9 -989
-207 -244 -101 -481 -182 -505 -173 -8 3 -22 32 -33 64 -26 78 -54 93 -179 93
-74 0 -94 3 -106 18 -29 33 -39 63 -40 122 -2 109 37 156 117 144 34 -5 51 -2
70 10 35 23 32 57 -10 133 -37 67 -45 122 -22 142 8 6 16 9 18 6 12 -11 273
-56 394 -67 106 -9 164 -9 270 0 150 14 511 62 680 92 210 36 476 66 621 69
60 1 62 0 75 -31z"/>
<path d="M4571 17074 c-101 -36 -192 -117 -238 -212 -38 -78 -44 -184 -14
-274 47 -141 202 -318 338 -385 74 -36 81 -38 177 -38 91 0 107 3 159 28 72
36 147 108 183 178 26 49 29 63 29 160 0 105 0 106 -44 195 -37 75 -61 105
-145 190 -129 130 -197 166 -319 171 -57 2 -95 -2 -126 -13z"/>
<path d="M15770 16745 l-125 -125 130 -131 c144 -145 208 -196 254 -205 98
-20 211 74 211 176 0 61 -30 104 -182 257 -84 84 -155 153 -158 153 -3 0 -61
-56 -130 -125z"/>
<path d="M2180 13245 c-151 -43 -242 -152 -272 -323 -11 -64 -10 -82 5 -140
42 -158 151 -251 374 -318 121 -36 270 -38 356 -5 81 32 166 113 203 193 26
57 29 73 29 168 0 101 -1 108 -34 168 -19 35 -55 82 -80 104 -135 119 -428
196 -581 153z"/>
<path d="M16442 5670 c-13 -5 -46 -33 -74 -62 -50 -51 -254 -315 -264 -342 -4
-10 45 -52 148 -130 84 -63 153 -114 154 -113 31 32 241 326 264 369 57 107
39 193 -52 254 -47 30 -133 42 -176 24z"/>
<path d="M17042 5284 c-61 -31 -122 -96 -252 -268 -72 -95 -130 -175 -130
-179 0 -8 360 -280 364 -275 2 1 67 89 145 193 143 192 181 262 181 331 0 142
-183 259 -308 198z"/>
<path d="M5251 3968 c-60 -83 -108 -155 -106 -159 8 -12 307 -224 360 -255 40
-23 62 -29 111 -29 54 0 67 4 100 31 75 60 103 156 68 230 -9 19 -44 58 -78
88 -71 62 -322 246 -335 246 -5 0 -59 -68 -120 -152z"/>
<path d="M4827 3385 c-70 -96 -130 -180 -133 -188 -5 -15 314 -251 400 -296
73 -38 166 -37 225 2 51 34 98 105 106 162 17 108 -45 185 -289 364 -89 64
-166 120 -172 124 -6 3 -66 -70 -137 -168z"/>
<path d="M7244 2813 c-27 -32 -111 -127 -187 -212 -76 -85 -134 -158 -130
-162 9 -9 340 -139 353 -139 6 0 20 553 14 568 -1 1 -23 -23 -50 -55z"/>
<path d="M8468 2617 c-131 -45 -219 -127 -288 -266 -70 -140 -106 -378 -80
-529 34 -201 183 -355 385 -397 38 -8 71 -13 72 -11 2 2 -21 16 -52 32 -30 16
-55 33 -55 38 0 15 125 235 134 236 21 0 167 -89 237 -146 l77 -63 56 60 c125
135 199 399 175 620 -25 219 -161 381 -366 434 -87 23 -214 19 -295 -8z"/>
<path d="M11566 2419 c-3 -19 -26 -144 -50 -279 -24 -135 -43 -246 -42 -247 4
-4 376 64 382 70 5 5 -254 454 -277 481 -4 5 -10 -7 -13 -25z"/>
</g>
</svg>
